<?xml version="1.0" encoding="UTF-8" standalone="no"?>
<svg
   xmlns:dc="http://purl.org/dc/elements/1.1/"
   xmlns:cc="http://creativecommons.org/ns#"
   xmlns:rdf="http://www.w3.org/1999/02/22-rdf-syntax-ns#"
   xmlns:svg="http://www.w3.org/2000/svg"
   xmlns="http://www.w3.org/2000/svg"
   xmlns:sodipodi="http://sodipodi.sourceforge.net/DTD/sodipodi-0.dtd"
   xmlns:inkscape="http://www.inkscape.org/namespaces/inkscape"
   version="1.1"
   id="Layer_1"
   x="0px"
   y="0px"
   viewBox="0 0 70.000002 69.999999"
   xml:space="preserve"
   sodipodi:docname="icon.svg"
   inkscape:version="1.0.2 (e86c870879, 2021-01-15)"
   width="70"
   height="70"><metadata
     id="metadata66"><rdf:RDF><cc:Work
         rdf:about=""><dc:format>image/svg+xml</dc:format><dc:type
           rdf:resource="http://purl.org/dc/dcmitype/StillImage" /><dc:title></dc:title></cc:Work></rdf:RDF></metadata><defs
     id="defs64" /><sodipodi:namedview
     pagecolor="#ffffff"
     bordercolor="#666666"
     borderopacity="1"
     objecttolerance="10"
     gridtolerance="10"
     guidetolerance="10"
     inkscape:pageopacity="0"
     inkscape:pageshadow="2"
     inkscape:window-width="3440"
     inkscape:window-height="1403"
     id="namedview62"
     showgrid="false"
     inkscape:zoom="12.427865"
     inkscape:cx="40.559502"
     inkscape:cy="45.301426"
     inkscape:window-x="0"
     inkscape:window-y="0"
     inkscape:window-maximized="1"
     inkscape:current-layer="Layer_1" /><g
     id="g59"
     transform="scale(0.56923297,0.72086184)"><path
       d="M 2.38,0 H 20.71 V 4.76 H 4.76 V 17.2 H 0 V 2.38 C 0,1.07 1.07,0 2.38,0 Z m 15.54,16.23 h 8.26 v 64.58 h -8.26 z m 51.49,0 h 5.9 v 64.58 h -5.9 z m -11.43,0 h 4.42 v 64.58 h -4.42 z m -24.79,0 h 2.51 v 64.58 h -2.51 z m 64.4,0 h 7.37 v 64.58 h -7.37 z m -15.27,0 h 8.26 v 64.58 h -8.26 z m -39.61,0 h 8.26 V 80.81 H 42.71 Z M 4.76,79.84 v 12.44 h 15.95 v 4.76 H 2.38 C 1.07,97.04 0,95.98 0,94.66 V 79.84 Z M 103.4,0 h 17.1 c 1.31,0 2.38,1.07 2.38,2.38 V 17.2 h -4.76 V 4.76 H 103.4 Z m 19.48,79.84 v 14.82 c 0,1.31 -1.07,2.38 -2.38,2.38 h -17.1 v -4.76 h 14.72 V 79.84 Z"
       id="path57" /></g></svg>
