<svg width="30" height="30" viewBox="0 0 30 30" fill="none" xmlns="http://www.w3.org/2000/svg">
<path d="M10.8647 3.08243L1.78146 7.61952L5.02609 10.8607L14.1091 6.32383L10.8647 3.08243ZM19.1353 3.08243L15.8908 6.32383L24.9739 10.8607L28.2186 7.61958L19.1354 3.08249L19.1353 3.08243ZM15 7.0576L14.4726 7.3211V15.6833L15 15.9467L15.5273 15.6833V7.3211L15 7.0576ZM5.06729 12.1643L1.69287 16.3782L9.86934 20.9163L14.1091 16.6808L5.06729 12.1644V12.1643ZM24.9327 12.1643L15.8909 16.6807L20.1306 20.9163L28.307 16.3782L24.9326 12.1644L24.9327 12.1643ZM14.4726 17.8084L10.0526 22.224L5.44932 19.6693V22.2508L14.4726 26.758V17.8084ZM15.5273 17.8084V26.758L24.5506 22.2508V19.6692L19.9474 22.2241L15.5273 17.8084Z" fill="#D18853"/>
</svg>
