<svg width="30" height="30" viewBox="0 0 30 30" fill="none" xmlns="http://www.w3.org/2000/svg">
<path d="M5.64878 25.01L26.25 25V20.625C25.587 20.625 24.9511 20.3616 24.4823 19.8928C24.0134 19.4239 23.75 18.788 23.75 18.125C23.75 17.462 24.0134 16.8261 24.4823 16.3572C24.9511 15.8884 25.587 15.625 26.25 15.625V11.25H5.34753" stroke="#9DB2CE" stroke-width="2" stroke-linecap="round" stroke-linejoin="round"/>
<path d="M26.25 11.25L14.5188 5.01001C11.3788 5.16001 8.57125 6.78501 6.61 9.29126C4.83125 11.5663 3.75 14.5675 3.75 17.8588C3.75 20.505 4.45 22.965 5.64875 25.01M18.75 16.25V16.2625M10 16.25V16.2625M13.75 20V20.0125" stroke="#9DB2CE" stroke-width="2" stroke-linecap="round" stroke-linejoin="round"/>
</svg>
