<svg width="30" height="30" viewBox="0 0 30 30" fill="none" xmlns="http://www.w3.org/2000/svg">
<path opacity="0.3" d="M16.25 10.625H17.5V11.875H16.25V10.625ZM12.5 10.625H13.75V11.875H12.5V10.625ZM14.375 10.625H15.625V11.875H14.375V10.625Z" fill="#9DB2CE"/>
<path d="M15 15C17.075 15 18.75 13.325 18.75 11.25C18.75 9.175 17.075 7.5 15 7.5C12.925 7.5 11.25 9.175 11.25 11.25C11.25 13.325 12.925 15 15 15ZM16.25 10.625H17.5V11.875H16.25V10.625ZM14.375 10.625H15.625V11.875H14.375V10.625ZM12.5 10.625H13.75V11.875H12.5V10.625Z" fill="#9DB2CE"/>
<path d="M23.75 3.75H6.25C4.875 3.75 3.75 4.875 3.75 6.25V23.75C3.75 25.125 4.875 26.25 6.25 26.25H23.75C25.125 26.25 26.25 25.125 26.25 23.75V6.25C26.25 4.875 25.125 3.75 23.75 3.75ZM23.75 23.75H6.25V6.25H23.75V23.75Z" fill="#9DB2CE"/>
</svg>
