<svg width="30" height="30" viewBox="0 0 30 30" fill="none" xmlns="http://www.w3.org/2000/svg">
<path d="M3.75 16.875L2.8125 15H9.375L8.625 13.125H2.5L1.5625 11.25H11.3125L10.5625 9.375H1.3875L0.3125 7.5H5C5 6.83696 5.26339 6.20107 5.73223 5.73223C6.20107 5.26339 6.83696 5 7.5 5H22.5V10H26.25L30 15V21.25H27.5C27.5 22.2446 27.1049 23.1984 26.4017 23.9017C25.6984 24.6049 24.7446 25 23.75 25C22.7554 25 21.8016 24.6049 21.0983 23.9017C20.3951 23.1984 20 22.2446 20 21.25H15C15 22.2446 14.6049 23.1984 13.9017 23.9017C13.1984 24.6049 12.2446 25 11.25 25C10.2554 25 9.30161 24.6049 8.59835 23.9017C7.89509 23.1984 7.5 22.2446 7.5 21.25H5V16.875H3.75ZM23.75 23.125C24.2473 23.125 24.7242 22.9275 25.0758 22.5758C25.4275 22.2242 25.625 21.7473 25.625 21.25C25.625 20.7527 25.4275 20.2758 25.0758 19.9242C24.7242 19.5725 24.2473 19.375 23.75 19.375C23.2527 19.375 22.7758 19.5725 22.4242 19.9242C22.0725 20.2758 21.875 20.7527 21.875 21.25C21.875 21.7473 22.0725 22.2242 22.4242 22.5758C22.7758 22.9275 23.2527 23.125 23.75 23.125ZM25.625 11.875H22.5V15H28.075L25.625 11.875ZM11.25 23.125C11.7473 23.125 12.2242 22.9275 12.5758 22.5758C12.9275 22.2242 13.125 21.7473 13.125 21.25C13.125 20.7527 12.9275 20.2758 12.5758 19.9242C12.2242 19.5725 11.7473 19.375 11.25 19.375C10.7527 19.375 10.2758 19.5725 9.92417 19.9242C9.57254 20.2758 9.375 20.7527 9.375 21.25C9.375 21.7473 9.57254 22.2242 9.92417 22.5758C10.2758 22.9275 10.7527 23.125 11.25 23.125Z" fill="#9DB2CE"/>
</svg>
