<svg id="fastersearchresult" xmlns="http://www.w3.org/2000/svg" xmlns:xlink="http://www.w3.org/1999/xlink" width="90.25" height="78.29" viewBox="0 0 90.25 78.29">
  <defs>
    <clipPath id="clip-path">
      <rect id="Rectangle_148218" data-name="Rectangle 148218" width="25.7" height="76.66" transform="translate(31.39 11.67)" fill="none"/>
    </clipPath>
  </defs>
  <g id="Group_76033" data-name="Group 76033" transform="translate(-4.87 -10.85)">
    <g id="Group_75594" data-name="Group 75594">
      <g id="Group_75591" data-name="Group 75591">
        <g id="Group_75595" data-name="Group 75595">
          <path id="Path_3232-2" data-name="Path 3232-2" d="M49.23,88.33H13.55a7.861,7.861,0,0,1-7.86-7.86h0V19.53a7.861,7.861,0,0,1,7.86-7.86H49.23a7.861,7.861,0,0,1,7.86,7.86h0V80.47a7.861,7.861,0,0,1-7.86,7.86h0" fill="#6d92f0"/>
          <path id="Path_3233" data-name="Path 3233" d="M49.23,89.14H13.55a8.691,8.691,0,0,1-8.68-8.68V19.53a8.691,8.691,0,0,1,8.68-8.68H49.23a8.691,8.691,0,0,1,8.68,8.68V80.46a8.691,8.691,0,0,1-8.68,8.68M13.55,12.48A7.055,7.055,0,0,0,6.5,19.53V80.46a7.055,7.055,0,0,0,7.05,7.05H49.23a7.055,7.055,0,0,0,7.05-7.05V19.53a7.055,7.055,0,0,0-7.05-7.05H13.55Z" fill="#f2f5fc"/>
          <path id="Path_3239" data-name="Path 3239" d="M22.63,56.03h0a.791.791,0,0,0,1.12.03l.08-.08a8.343,8.343,0,0,0,0-10.16.793.793,0,0,0-1.11-.13c-.02.02-.04.03-.06.05h0a.784.784,0,0,0-.07,1.05,6.752,6.752,0,0,1,0,8.22.776.776,0,0,0,.05,1.02" fill="#fff"/>
          <path id="Path_3240" data-name="Path 3240" d="M24.95,58.46h0a.794.794,0,0,0,1.13.02l.05-.05a11.684,11.684,0,0,0,.1-14.94.807.807,0,0,0-1.13-.11.138.138,0,0,1-.04.03h0a.776.776,0,0,0-.07,1.06,10.1,10.1,0,0,1-.09,12.94.769.769,0,0,0,.04,1.04" fill="#fff"/>
          <path id="Path_3241" data-name="Path 3241" d="M27.68,61.32h0a.782.782,0,0,0,1.12.02.1.1,0,0,0,.04-.05,15.618,15.618,0,0,0,.23-20.53.792.792,0,0,0-1.12-.09c-.01,0-.02.02-.03.03h0a.788.788,0,0,0-.07,1.07,14.021,14.021,0,0,1-.21,18.49.785.785,0,0,0,.03,1.06" fill="#fff"/>
          <path id="Path_3242" data-name="Path 3242" d="M30.67,64.45h0a.791.791,0,0,0,1.12.02l.04-.04a19.946,19.946,0,0,0,.35-26.69.789.789,0,0,0-1.11-.06l-.02.02h0a.8.8,0,0,0-.04,1.1,18.363,18.363,0,0,1-.34,24.55.792.792,0,0,0,0,1.09" fill="#fff"/>
          <path id="Path_3243" data-name="Path 3243" d="M40.3,17.79H22.48a1.016,1.016,0,0,1,0-2.03H40.3a1.016,1.016,0,0,1,.07,2.03h-.06" fill="#fff"/>
          <path id="Path_3244" data-name="Path 3244" d="M35.34,84.77H27.45a1.016,1.016,0,0,1-.07-2.03h7.95a1.016,1.016,0,0,1,.07,2.03h-.06" fill="#fff"/>
          <g id="Group_75589" data-name="Group 75589" opacity="0.1">
            <g id="Group_75588" data-name="Group 75588">
              <g id="Group_76024" data-name="Group 76024" clip-path="url(#clip-path)">
                <g id="Group_75587" data-name="Group 75587">
                  <path id="Path_3245" data-name="Path 3245" d="M49.23,11.67H31.39V88.33H49.23a7.861,7.861,0,0,0,7.86-7.86h0V19.53a7.861,7.861,0,0,0-7.86-7.86h0" fill="#fff"/>
                </g>
              </g>
            </g>
          </g>
        </g>
      </g>
    </g>
    <g id="Group_76026" data-name="Group 76026">
      <rect id="Rectangle_148219" data-name="Rectangle 148219" width="36.36" height="10.72" rx="2.3" transform="translate(39.57 25.68)" fill="#039"/>
      <rect id="Rectangle_148220" data-name="Rectangle 148220" width="8" height="8" rx="1.76" transform="translate(41.59 27.04)" fill="#e6eeff"/>
      <g id="Group_76025" data-name="Group 76025">
        <path id="Path_4102" data-name="Path 4102" d="M71.35,28.29h-19a.75.75,0,0,0,0,1.5h19a.75.75,0,0,0,0-1.5Z" fill="#fff"/>
        <path id="Path_4103" data-name="Path 4103" d="M66.35,32.29h-14a.75.75,0,0,0,0,1.5h14a.75.75,0,0,0,0-1.5Z" fill="#fff"/>
      </g>
    </g>
    <g id="Group_76028" data-name="Group 76028">
      <rect id="Rectangle_148221" data-name="Rectangle 148221" width="36.36" height="10.72" rx="2.3" transform="translate(46.59 54.25)" fill="#039"/>
      <rect id="Rectangle_148222" data-name="Rectangle 148222" width="8" height="8" rx="1.76" transform="translate(48.61 55.61)" fill="#e6eeff"/>
      <g id="Group_76027" data-name="Group 76027">
        <path id="Path_4104" data-name="Path 4104" d="M78.37,56.86h-19a.75.75,0,0,0,0,1.5h19a.75.75,0,0,0,0-1.5Z" fill="#fff"/>
        <path id="Path_4105" data-name="Path 4105" d="M73.37,60.86h-14a.75.75,0,0,0,0,1.5h14a.75.75,0,0,0,0-1.5Z" fill="#fff"/>
      </g>
    </g>
    <g id="Group_76030" data-name="Group 76030">
      <rect id="Rectangle_148223" data-name="Rectangle 148223" width="36.36" height="10.72" rx="2.3" transform="translate(50.59 68.54)" fill="#039"/>
      <rect id="Rectangle_148224" data-name="Rectangle 148224" width="8" height="8" rx="1.76" transform="translate(52.61 69.9)" fill="#e6eeff"/>
      <g id="Group_76029" data-name="Group 76029">
        <path id="Path_4106" data-name="Path 4106" d="M82.37,71.15h-19a.75.75,0,0,0,0,1.5h19a.75.75,0,0,0,0-1.5Z" fill="#fff"/>
        <path id="Path_4107" data-name="Path 4107" d="M77.37,75.15h-14a.75.75,0,0,0,0,1.5h14a.75.75,0,0,0,0-1.5Z" fill="#fff"/>
      </g>
    </g>
    <path id="Path_4108" data-name="Path 4108" d="M19.91,48.39a2.493,2.493,0,0,0-2.39,1.81h-4.3a2.057,2.057,0,0,1-2.06-2.06V30.02A3.568,3.568,0,0,0,7.6,26.46H6.5v1.5H7.6a2.057,2.057,0,0,1,2.06,2.06V48.14a3.568,3.568,0,0,0,3.56,3.56h4.34a2.494,2.494,0,1,0,2.35-3.31Z" fill="#fff"/>
    <g id="Group_76032" data-name="Group 76032">
      <rect id="Rectangle_148225" data-name="Rectangle 148225" width="36.36" height="10.72" rx="2.3" transform="translate(42.57 39.97)" fill="#039"/>
      <rect id="Rectangle_148226" data-name="Rectangle 148226" width="8" height="8" rx="1.76" transform="translate(44.59 41.33)" fill="#e6eeff"/>
      <g id="Group_76031" data-name="Group 76031">
        <path id="Path_4109" data-name="Path 4109" d="M74.35,42.58h-19a.75.75,0,0,0,0,1.5h19a.75.75,0,0,0,0-1.5Z" fill="#fff"/>
        <path id="Path_4110" data-name="Path 4110" d="M69.35,46.58h-14a.75.75,0,0,0,0,1.5h14a.75.75,0,0,0,0-1.5Z" fill="#fff"/>
      </g>
    </g>
  </g>
  <g id="Group_76034" data-name="Group 76034" transform="translate(-4.87 -10.85)">
    <path id="Path_4111" data-name="Path 4111" d="M90.8,30.29H79.56a.769.769,0,1,0,0,1.5H90.8a.769.769,0,1,0,0-1.5Z" fill="#00b250"/>
    <path id="Path_4112" data-name="Path 4112" d="M84.55,34.29h-5a.769.769,0,1,0,0,1.5h5a.769.769,0,1,0,0-1.5Z" fill="#00b250"/>
  </g>
  <g id="Group_76035" data-name="Group 76035" transform="translate(-4.87 -10.85)">
    <path id="Path_4113" data-name="Path 4113" d="M94.21,44.58H83.27a.764.764,0,1,0,0,1.5H94.21a.764.764,0,1,0,0-1.5Z" fill="#00b250"/>
    <path id="Path_4114" data-name="Path 4114" d="M88.13,48.58H83.27a.764.764,0,1,0,0,1.5h4.86a.764.764,0,1,0,0-1.5Z" fill="#00b250"/>
  </g>
  <g id="Group_76036" data-name="Group 76036" transform="translate(-4.87 -10.85)">
    <path id="Path_4115" data-name="Path 4115" d="M92.34,58.86H86.11c-.29,0-.52.34-.52.75s.23.75.52.75h6.23c.29,0,.52-.34.52-.75S92.63,58.86,92.34,58.86Z" fill="#00b250"/>
    <path id="Path_4116" data-name="Path 4116" d="M88.88,62.86H86.11c-.29,0-.52.34-.52.75s.23.75.52.75h2.77c.29,0,.52-.34.52-.75S89.17,62.86,88.88,62.86Z" fill="#00b250"/>
  </g>
  <g id="Group_76037" data-name="Group 76037" transform="translate(-4.87 -10.85)">
    <path id="Path_4117" data-name="Path 4117" d="M94.64,72.65H88.83c-.27,0-.48.34-.48.75s.22.75.48.75h5.81c.27,0,.48-.34.48-.75S94.9,72.65,94.64,72.65Z" fill="#00b250"/>
    <path id="Path_4118" data-name="Path 4118" d="M91.41,76.65H88.83c-.27,0-.48.34-.48.75s.22.75.48.75h2.58c.27,0,.48-.34.48-.75S91.67,76.65,91.41,76.65Z" fill="#00b250"/>
  </g>
</svg>
