<svg id="img002odootheme" xmlns="http://www.w3.org/2000/svg" xmlns:xlink="http://www.w3.org/1999/xlink" width="387.778" height="343.34" viewBox="0 0 387.778 343.34">
  <defs>
    <clipPath id="clip-path">
      <rect id="Rectangle_147824" data-name="Rectangle 147824" width="387.778" height="343.34" fill="none"/>
    </clipPath>
    <clipPath id="clip-path-3">
      <rect id="Rectangle_147796" data-name="Rectangle 147796" width="89.165" height="12.74" transform="translate(235.857 201.471)" fill="none"/>
    </clipPath>
    <clipPath id="clip-path-4">
      <rect id="Rectangle_147797" data-name="Rectangle 147797" width="19.146" height="19.147" transform="translate(300.999 152.171)" fill="none"/>
    </clipPath>
    <clipPath id="clip-path-5">
      <rect id="Rectangle_147798" data-name="Rectangle 147798" width="85.896" height="5.772" transform="translate(241.303 159.336)" fill="none"/>
    </clipPath>
    <clipPath id="clip-path-6">
      <rect id="Rectangle_147801" data-name="Rectangle 147801" width="37.998" height="4.556" transform="translate(252.418 154.78)" fill="none"/>
    </clipPath>
    <clipPath id="clip-path-7">
      <rect id="Rectangle_147802" data-name="Rectangle 147802" width="35.41" height="19.565" transform="translate(115.378 234.744)" fill="none"/>
    </clipPath>
    <clipPath id="clip-path-8">
      <rect id="Rectangle_147803" data-name="Rectangle 147803" width="82.795" height="12.741" transform="translate(67.993 222.003)" fill="none"/>
    </clipPath>
    <clipPath id="clip-path-9">
      <rect id="Rectangle_147804" data-name="Rectangle 147804" width="106.199" height="175.616" transform="translate(155.127 156.401)" fill="none"/>
    </clipPath>
    <clipPath id="clip-path-10">
      <rect id="Rectangle_147807" data-name="Rectangle 147807" width="10.849" height="97.273" transform="translate(71.831 234.744)" fill="none"/>
    </clipPath>
    <clipPath id="clip-path-11">
      <rect id="Rectangle_147808" data-name="Rectangle 147808" width="10.849" height="6.577" transform="translate(71.831 234.744)" fill="none"/>
    </clipPath>
    <clipPath id="clip-path-12">
      <rect id="Rectangle_147809" data-name="Rectangle 147809" width="86.309" height="32.728" transform="translate(165.072 177.161)" fill="none"/>
    </clipPath>
    <clipPath id="clip-path-13">
      <rect id="Rectangle_147810" data-name="Rectangle 147810" width="15.957" height="82.816" transform="translate(38.07 139.188)" fill="none"/>
    </clipPath>
    <clipPath id="clip-path-14">
      <rect id="Rectangle_147812" data-name="Rectangle 147812" width="17.6" height="33.994" transform="translate(162.299 95.975)" fill="none"/>
    </clipPath>
    <clipPath id="clip-path-15">
      <rect id="Rectangle_147813" data-name="Rectangle 147813" width="17.6" height="9.887" transform="translate(162.299 27.228)" fill="none"/>
    </clipPath>
    <clipPath id="clip-path-16">
      <rect id="Rectangle_147814" data-name="Rectangle 147814" width="116.39" height="73.519" transform="translate(123.572 47.479)" fill="none"/>
    </clipPath>
    <clipPath id="clip-path-17">
      <rect id="Rectangle_147816" data-name="Rectangle 147816" width="74.387" height="56.759" transform="translate(133.38 56.213)" fill="none"/>
    </clipPath>
    <clipPath id="clip-path-18">
      <rect id="Rectangle_147817" data-name="Rectangle 147817" width="19.341" height="5.08" transform="translate(208.574 56.213)" fill="none"/>
    </clipPath>
    <clipPath id="clip-path-19">
      <rect id="Rectangle_147818" data-name="Rectangle 147818" width="19.986" height="14.473" transform="translate(209.336 67.283)" fill="none"/>
    </clipPath>
    <clipPath id="clip-path-20">
      <rect id="Rectangle_147821" data-name="Rectangle 147821" width="14.735" height="26.425" transform="translate(152.871 5.89)" fill="none"/>
    </clipPath>
    <clipPath id="clip-path-21">
      <rect id="Rectangle_147822" data-name="Rectangle 147822" width="17.435" height="18.291" transform="translate(256.017 148.511)" fill="none"/>
    </clipPath>
  </defs>
  <g id="Group_75568" data-name="Group 75568" clip-path="url(#clip-path)">
    <g id="Group_75567" data-name="Group 75567">
      <g id="odooThemeImg02" clip-path="url(#clip-path)">
        <path id="Path_3176" data-name="Path 3176" d="M387.778,332.017c0,6.254-86.807,11.323-193.889,11.323S0,338.271,0,332.017s86.807-11.323,193.889-11.323,193.889,5.07,193.889,11.323" fill="#f5f5f5"/>
        <path id="Path_3177" data-name="Path 3177" d="M235.857,201.471h82.794a6.37,6.37,0,0,1,0,12.74H235.857Z" fill="#407bff"/>
        <g id="Group_75511" data-name="Group 75511" opacity="0.6">
          <g id="Group_75510" data-name="Group 75510">
            <g id="Group_75509" data-name="Group 75509" clip-path="url(#clip-path-3)">
              <path id="Path_3178" data-name="Path 3178" d="M235.857,201.471h82.794a6.37,6.37,0,0,1,0,12.74H235.857Z" fill="#fff"/>
            </g>
          </g>
        </g>
        <path id="Path_3179" data-name="Path 3179" d="M320.145,161.745a9.573,9.573,0,1,1-9.573-9.573,9.573,9.573,0,0,1,9.573,9.573" fill="#407bff"/>
        <g id="Group_75514" data-name="Group 75514" opacity="0.8">
          <g id="Group_75513" data-name="Group 75513">
            <g id="Group_75512" data-name="Group 75512" clip-path="url(#clip-path-4)">
              <path id="Path_3180" data-name="Path 3180" d="M320.145,161.745a9.573,9.573,0,1,1-9.573-9.573,9.573,9.573,0,0,1,9.573,9.573" fill="#fff"/>
            </g>
          </g>
        </g>
        <path id="Path_3181" data-name="Path 3181" d="M244.7,163.028h79.11l-7.574,38.443H252.27Z" fill="#d3defa"/>
        <path id="Path_3182" data-name="Path 3182" d="M242.489,159.336h83.524a1.185,1.185,0,0,1,1.138,1.517l-.991,3.4a1.187,1.187,0,0,1-1.138.853H243.48a1.186,1.186,0,0,1-1.138-.853l-.991-3.4a1.185,1.185,0,0,1,1.138-1.517" fill="#407bff"/>
        <g id="Group_75517" data-name="Group 75517" opacity="0.6">
          <g id="Group_75516" data-name="Group 75516">
            <g id="Group_75515" data-name="Group 75515" clip-path="url(#clip-path-5)">
              <path id="Path_3183" data-name="Path 3183" d="M242.489,159.336h83.524a1.185,1.185,0,0,1,1.138,1.517l-.991,3.4a1.187,1.187,0,0,1-1.138.853H243.48a1.186,1.186,0,0,1-1.138-.853l-.991-3.4a1.185,1.185,0,0,1,1.138-1.517" fill="#fff"/>
            </g>
          </g>
        </g>
        <rect id="Rectangle_147799" data-name="Rectangle 147799" width="37.998" height="4.556" transform="translate(252.418 154.78)" fill="#407bff"/>
        <g id="Group_75520" data-name="Group 75520" opacity="0.2">
          <g id="Group_75519" data-name="Group 75519">
            <g id="Group_75518" data-name="Group 75518" clip-path="url(#clip-path-6)">
              <rect id="Rectangle_147800" data-name="Rectangle 147800" width="37.998" height="4.556" transform="translate(252.418 154.78)"/>
            </g>
          </g>
        </g>
        <path id="Path_3184" data-name="Path 3184" d="M274.245,167.659a1.21,1.21,0,0,1-1.325.835c-2.98-.5-4.485-3.237-3.4-6.523l7.657-23.1c1.207-3.643,5.153-6.607,8.8-6.607h13.55c3.643,0,5.624,2.964,4.416,6.607l-6.783,20.462h-2.273l6.784-20.462c.793-2.39-.507-4.334-2.9-4.334h-13.55a6.585,6.585,0,0,0-5.771,4.334l-7.657,23.1c-.647,1.95.1,3.6,1.7,4.146a1.22,1.22,0,0,1,.752,1.542" fill="#a9c4ff"/>
        <path id="Path_3185" data-name="Path 3185" d="M252.68,156.4H123.873a8.646,8.646,0,0,0-8.646,8.646V323.371a8.646,8.646,0,0,0,8.646,8.646H252.68a8.646,8.646,0,0,0,8.646-8.646V165.047a8.646,8.646,0,0,0-8.646-8.646" fill="#6d92f0"/>
        <path id="Path_3186" data-name="Path 3186" d="M150.788,222h-120a6.37,6.37,0,1,0,0,12.74h120Z" fill="#6d92f0"/>
        <g id="Group_75523" data-name="Group 75523" opacity="0.3">
          <g id="Group_75522" data-name="Group 75522">
            <g id="Group_75521" data-name="Group 75521" clip-path="url(#clip-path-7)">
              <path id="Path_3187" data-name="Path 3187" d="M150.788,238.277l-35.41,16.032V234.744h35.41Z" fill="#263238"/>
            </g>
          </g>
        </g>
        <g id="Group_75526" data-name="Group 75526" opacity="0.7">
          <g id="Group_75525" data-name="Group 75525">
            <g id="Group_75524" data-name="Group 75524" clip-path="url(#clip-path-8)">
              <path id="Path_3188" data-name="Path 3188" d="M150.788,222H74.363a6.37,6.37,0,1,0,0,12.74h76.425Z" fill="#fff"/>
            </g>
          </g>
        </g>
        <g id="Group_75529" data-name="Group 75529" opacity="0.7">
          <g id="Group_75528" data-name="Group 75528">
            <g id="Group_75527" data-name="Group 75527" clip-path="url(#clip-path-9)">
              <path id="Path_3189" data-name="Path 3189" d="M252.68,156.4H163.773a8.646,8.646,0,0,0-8.646,8.646V323.371a8.646,8.646,0,0,0,8.646,8.646H252.68a8.646,8.646,0,0,0,8.646-8.646V165.047a8.646,8.646,0,0,0-8.646-8.646" fill="#fff"/>
            </g>
          </g>
        </g>
        <rect id="Rectangle_147805" data-name="Rectangle 147805" width="10.849" height="97.273" transform="translate(71.831 234.744)" fill="#407bff"/>
        <g id="Group_75532" data-name="Group 75532" opacity="0.7">
          <g id="Group_75531" data-name="Group 75531">
            <g id="Group_75530" data-name="Group 75530" clip-path="url(#clip-path-10)">
              <rect id="Rectangle_147806" data-name="Rectangle 147806" width="10.849" height="97.273" transform="translate(71.831 234.744)" fill="#fff"/>
            </g>
          </g>
        </g>
        <g id="Group_75535" data-name="Group 75535" opacity="0.3">
          <g id="Group_75534" data-name="Group 75534">
            <g id="Group_75533" data-name="Group 75533" clip-path="url(#clip-path-11)">
              <path id="Path_3190" data-name="Path 3190" d="M82.68,238.97l-10.849,2.351v-6.577H82.68Z" fill="#407bff"/>
            </g>
          </g>
        </g>
        <g id="Group_75538" data-name="Group 75538" opacity="0.3">
          <g id="Group_75537" data-name="Group 75537">
            <g id="Group_75536" data-name="Group 75536" clip-path="url(#clip-path-12)">
              <path id="Path_3191" data-name="Path 3191" d="M248.91,209.889H167.544a2.471,2.471,0,0,1-2.471-2.471V179.633a2.471,2.471,0,0,1,2.471-2.472H248.91a2.471,2.471,0,0,1,2.471,2.472v27.785a2.471,2.471,0,0,1-2.471,2.471" fill="#407bff"/>
            </g>
          </g>
        </g>
        <path id="Path_3192" data-name="Path 3192" d="M103.378,139.188h-59.3L38.069,222H109.39Z" fill="#d49d08"/>
        <g id="Group_75541" data-name="Group 75541" opacity="0.3">
          <g id="Group_75540" data-name="Group 75540">
            <g id="Group_75539" data-name="Group 75539" clip-path="url(#clip-path-13)">
              <path id="Path_3193" data-name="Path 3193" d="M51.948,139.188H44.082L38.069,222H54.027Z" fill="#263238"/>
            </g>
          </g>
        </g>
        <path id="Path_3194" data-name="Path 3194" d="M77.338,149.286c-5.54,0-10.5-3.885-11.328-9.063a9.184,9.184,0,0,1,1.841-7.154,10.633,10.633,0,0,1,7.467-3.931c5.956-.537,11.51,3.509,12.387,9.015a9.179,9.179,0,0,1-1.841,7.154,10.64,10.64,0,0,1-7.466,3.932c-.355.032-.709.047-1.06.047m-.952-18.439c-.3,0-.606.013-.911.041a8.873,8.873,0,0,0-6.237,3.261,7.44,7.44,0,0,0-1.492,5.8c.735,4.612,5.443,8,10.495,7.541a8.874,8.874,0,0,0,6.236-3.26,7.438,7.438,0,0,0,1.492-5.8c-.69-4.333-4.888-7.582-9.583-7.582" fill="#d49d08"/>
        <path id="Path_3195" data-name="Path 3195" d="M72.853,149.286c-.351,0-.7-.015-1.06-.047a10.636,10.636,0,0,1-7.465-3.932,9.18,9.18,0,0,1-1.842-7.154c.877-5.506,6.432-9.551,12.387-9.015a10.633,10.633,0,0,1,7.466,3.931,9.18,9.18,0,0,1,1.842,7.154c-.825,5.178-5.789,9.063-11.328,9.063m.952-18.439c-4.7,0-8.893,3.248-9.583,7.582a7.438,7.438,0,0,0,1.492,5.8,8.874,8.874,0,0,0,6.237,3.26c5.052.453,9.759-2.929,10.494-7.541a7.439,7.439,0,0,0-1.492-5.8,8.872,8.872,0,0,0-6.237-3.261q-.458-.041-.911-.041" fill="#d49d08"/>
        <rect id="Rectangle_147811" data-name="Rectangle 147811" width="17.599" height="130.067" transform="translate(162.3 26.334)" fill="#6d92f0"/>
        <g id="Group_75544" data-name="Group 75544" opacity="0.3">
          <g id="Group_75543" data-name="Group 75543">
            <g id="Group_75542" data-name="Group 75542" clip-path="url(#clip-path-14)">
              <path id="Path_3196" data-name="Path 3196" d="M179.9,95.975H162.3v33.993l17.6-2.169Z" fill="#263238"/>
            </g>
          </g>
        </g>
        <g id="Group_75547" data-name="Group 75547" opacity="0.3">
          <g id="Group_75546" data-name="Group 75546">
            <g id="Group_75545" data-name="Group 75545" clip-path="url(#clip-path-15)">
              <path id="Path_3197" data-name="Path 3197" d="M179.9,27.228H162.3v9.887l17.6-2.17Z" fill="#263238"/>
            </g>
          </g>
        </g>
        <path id="Path_3198" data-name="Path 3198" d="M125.135,120.165l-4.9-71.25a4.389,4.389,0,0,1,4.378-4.69H234.022a4.387,4.387,0,0,1,4.378,4.088l4.9,71.251a4.388,4.388,0,0,1-4.378,4.689H129.513a4.388,4.388,0,0,1-4.378-4.088" fill="#263238"/>
        <path id="Path_3199" data-name="Path 3199" d="M232.764,47.479H126.054a2.48,2.48,0,0,0-2.475,2.651l4.717,68.558a2.481,2.481,0,0,0,2.475,2.31h106.71a2.481,2.481,0,0,0,2.475-2.651L235.239,49.79a2.482,2.482,0,0,0-2.475-2.311" fill="#407bff"/>
        <g id="Group_75550" data-name="Group 75550" opacity="0.8">
          <g id="Group_75549" data-name="Group 75549">
            <g id="Group_75548" data-name="Group 75548" clip-path="url(#clip-path-16)">
              <path id="Path_3200" data-name="Path 3200" d="M232.764,47.479H126.054a2.48,2.48,0,0,0-2.475,2.651l4.717,68.558a2.481,2.481,0,0,0,2.475,2.31h106.71a2.481,2.481,0,0,0,2.475-2.651L235.239,49.79a2.482,2.482,0,0,0-2.475-2.311" fill="#fff"/>
            </g>
          </g>
        </g>
        <rect id="Rectangle_147815" data-name="Rectangle 147815" width="93.662" height="2.384" transform="translate(140.18 154.017)" fill="#263238"/>
        <g id="Group_75553" data-name="Group 75553" opacity="0.3">
          <g id="Group_75552" data-name="Group 75552">
            <g id="Group_75551" data-name="Group 75551" clip-path="url(#clip-path-17)">
              <path id="Path_3201" data-name="Path 3201" d="M207.767,112.972H137.286l-3.9-56.759h70.481Z" fill="#407bff"/>
            </g>
          </g>
        </g>
        <g id="Group_75556" data-name="Group 75556" opacity="0.3">
          <g id="Group_75555" data-name="Group 75555">
            <g id="Group_75554" data-name="Group 75554" clip-path="url(#clip-path-18)">
              <path id="Path_3202" data-name="Path 3202" d="M227.915,61.293H208.923l-.349-5.08h18.99Z" fill="#407bff"/>
            </g>
          </g>
        </g>
        <g id="Group_75559" data-name="Group 75559" opacity="0.3">
          <g id="Group_75558" data-name="Group 75558">
            <g id="Group_75557" data-name="Group 75557" clip-path="url(#clip-path-19)">
              <path id="Path_3203" data-name="Path 3203" d="M229.322,81.756H210.331l-1-14.473h18.991Z" fill="#407bff"/>
            </g>
          </g>
        </g>
        <rect id="Rectangle_147819" data-name="Rectangle 147819" width="35.406" height="26.425" transform="translate(152.871 5.89)" fill="#6d92f0"/>
        <g id="Group_75562" data-name="Group 75562" opacity="0.3">
          <g id="Group_75561" data-name="Group 75561">
            <g id="Group_75560" data-name="Group 75560" clip-path="url(#clip-path-20)">
              <rect id="Rectangle_147820" data-name="Rectangle 147820" width="14.735" height="26.425" transform="translate(152.871 5.89)" fill="#263238"/>
            </g>
          </g>
        </g>
        <path id="Path_3204" data-name="Path 3204" d="M264.686,119.588l1.955-2.49a3.684,3.684,0,0,1,3.067-1.4l5.557.257a6.868,6.868,0,0,1,5.459,3.147l.745,1.158c-2.96,4.351-9.365,6.872-9.365,6.872l-1.746.921a3.064,3.064,0,0,1-4.193-1.191l-1.87-3.436a3.53,3.53,0,0,1,.391-3.834" fill="#ff8b7b"/>
        <path id="Path_3205" data-name="Path 3205" d="M284.044,69.719c.573.706.97,1.214,1.417,1.806.436.572.84,1.152,1.249,1.728.818,1.151,1.566,2.336,2.316,3.519a79.642,79.642,0,0,1,4.04,7.378c.62,1.261,1.186,2.558,1.75,3.854.522,1.322,1.057,2.632,1.514,3.989a64.133,64.133,0,0,1,2.322,8.323l.1.463a4.56,4.56,0,0,1,.1.958,14.137,14.137,0,0,1-1.012,5.221,18.618,18.618,0,0,1-2.146,3.889,26.368,26.368,0,0,1-5.184,5.246,39.394,39.394,0,0,1-5.58,3.579,40.538,40.538,0,0,1-5.955,2.587,3.773,3.773,0,0,1-3.869-6.248l.247-.244c1.234-1.226,2.648-2.556,3.878-3.857a47.568,47.568,0,0,0,3.446-3.95,18.259,18.259,0,0,0,2.345-3.752c.5-1.124.441-1.949.291-1.957l.206,1.421c-.75-2.161-1.547-4.305-2.52-6.432s-2.01-4.226-3.16-6.3-2.35-4.124-3.64-6.124c-.637-1-1.3-1.99-1.956-2.97l-.995-1.442-.917-1.3-.238-.337a7.5,7.5,0,0,1,11.945-9.053" fill="#ff8b7b"/>
        <path id="Path_3206" data-name="Path 3206" d="M270.316,61.243c-2.813,6.4-2.633,14.39,6.039,26.609,5.743.623,16.365-6.828,16.365-6.828s-7.331-20.456-22.4-19.781" fill="#263238"/>
        <path id="Path_3207" data-name="Path 3207" d="M265.511,38.989c-1.677,6.2-3.736,17.557.292,21.693,0,0-5.871-.882-18.337,6.828-3.609-5.177-.928-6.827-.928-6.827,7.035-1.651,7.239-6.78,6.394-11.6Z" fill="#ff8b7b"/>
        <path id="Path_3208" data-name="Path 3208" d="M240.154,65.285c1.845-3.958,6.2-7.8,9.211-7.232s4.843,1.51,6.627.026,6.175-3.708,8.421-1.225c3.147,3.479,7.918,1.022,6.116,4.815-1.944,4.1-30.375,3.616-30.375,3.616" fill="#6d92f0"/>
        <path id="Path_3209" data-name="Path 3209" d="M242.983,27.613c-.122.847-.66,1.5-1.2,1.461s-.883-.759-.762-1.606.66-1.5,1.2-1.461.883.759.762,1.606" fill="#263238"/>
        <path id="Path_3210" data-name="Path 3210" d="M242.454,26.072l-1.908-.733s.794,1.664,1.908.733" fill="#263238"/>
        <path id="Path_3211" data-name="Path 3211" d="M242.795,29.211a25.114,25.114,0,0,1-3.733,5.187c.946,1.124,2.876.785,2.876.785Z" fill="#ff5652"/>
        <path id="Path_3212" data-name="Path 3212" d="M241.57,20.868a.459.459,0,0,1-.056-.355.493.493,0,0,1,.615-.332,5.228,5.228,0,0,1,3.6,2.921.455.455,0,0,1-.308.6.541.541,0,0,1-.653-.314,4.178,4.178,0,0,0-2.877-2.284.533.533,0,0,1-.322-.237" fill="#263238"/>
        <path id="Path_3213" data-name="Path 3213" d="M270.8,26.548c-1.881,10.009-2.465,14.274-8.176,19.075-8.591,7.221-20.395,3.4-21.523-6.8-1.015-9.185,2.231-24.01,12.545-27.315A13.045,13.045,0,0,1,270.8,26.548" fill="#ff8b7b"/>
        <path id="Path_3214" data-name="Path 3214" d="M248.388,29.779c-3.616-5.667-7.535-12.75-5.075-17.667s8.043-3.75,8.043-3.75,10.833-6.083,20.5,1.834c12.862,10.534-.932,22.119-4.334,32.166-3.742,11.051-23.185-2.333-19.134-12.583" fill="#263238"/>
        <path id="Path_3215" data-name="Path 3215" d="M303.806,11.4c-5.222-19.445-28.17-10.513-34.839.974l2.722.7c27.369-17.652,13.9,7.878,14.117,18.279s10.556,16.821,10.556,16.821,12.666-17.333,7.444-36.777" fill="#263238"/>
        <path id="Path_3216" data-name="Path 3216" d="M296.872,45.8c-2.927,0-7-.557-9.66-3.242-2.406-2.433-3.15-6.146-2.21-11.037.3-1.55.775-3.353,1.28-5.261,1.579-5.964,3.544-13.387.446-16.007-2.18-1.844-6.77-1.2-13.645,1.917a.25.25,0,0,1-.206-.455c7.164-3.248,11.8-3.851,14.174-1.844,3.339,2.824,1.413,10.1-.285,16.517-.5,1.9-.979,3.694-1.273,5.227-.907,4.719-.209,8.282,2.073,10.59,4.257,4.305,12.693,2.84,12.778,2.825a.25.25,0,1,1,.089.492,21.661,21.661,0,0,1-3.561.278" fill="#263238"/>
        <path id="Path_3217" data-name="Path 3217" d="M272.275,8.122c.259-1.275-2.948-.739-3.094.386s-.576.5-1.826,2.15-1.42,3.592,2.68,4.871c2.6.813,2.979-1.187,4.334-2.187.73-.54,1.549-.827,2.077-1.231a.825.825,0,0,0-.418-1.481c-1.679-.143-4-1.265-3.753-2.508" fill="#6d92f0"/>
        <path id="Path_3218" data-name="Path 3218" d="M250.226,33.338a7,7,0,0,1-4.413,3.541c-2.353.517-3.248-2.2-2.358-4.826.8-2.368,2.991-5.491,5.24-4.813,2.215.668,2.8,3.8,1.531,6.1" fill="#ff8b7b"/>
        <path id="Path_3219" data-name="Path 3219" d="M293.014,336.945c7.775-1.153,7.923-2.445,12.094-3.906,3.568-1.259,4.573-1.079,7.452-2.051,2.407-.811,1.591-3.1.007-5.536-.793-1.223-.907-2.388-1.774-4.552l-11.81,1.751c-1.149,3.3-1.555,7.516-8.3,9.929-4.015,1.438-.772,4.825,2.327,4.365" fill="#263238"/>
        <path id="Path_3220" data-name="Path 3220" d="M221,336.975c7.725-.014,9.211-.507,13.553-.656,3.721-.135,4.332.656,8.1.656,2.5,0,2.843-2.815,1.929-4.925-.713-1.644-.821-3.61-1.339-5.744H232.6c-1.922,3.376-7.161,5.875-13.017,6.294-4.185.31-1.672,4.375,1.421,4.375" fill="#263238"/>
        <path id="Path_3221" data-name="Path 3221" d="M230.034,126.408s-1.54,55.581,1.751,90.877c-.206,33.136.814,109.02.814,109.02.257,1.693,9.145,1.018,10.652,0,0,0,16.643-55.271,9.255-109.02,18.5-56.056,14.507-90.877,14.507-90.877Z" fill="#263238"/>
        <path id="Path_3222" data-name="Path 3222" d="M241.122,126.408s18.057,62.735,25.382,93.54c7.693,32.353,30.577,81.258,32.479,102.7,1.979.788,8.39-.1,11.81-1.751,0,0-3.136-68.375-21.73-99.521,4.2-76.637-16.6-94.971-16.6-94.971Z" fill="#263238"/>
        <path id="Path_3223" data-name="Path 3223" d="M297.434,318.357a30.737,30.737,0,0,1,.237,4.428.92.92,0,0,0,.924.96c4.425.051,10.532-1.879,12.464-2.531a.909.909,0,0,0,.617-.86l.038-4.18a.918.918,0,0,0-1.07-.915L298.2,317.352a.912.912,0,0,0-.761,1.005" fill="#6d92f0"/>
        <path id="Path_3224" data-name="Path 3224" d="M231.379,321.635c-.032,1.151-.1,3.2-.205,4.718a.966.966,0,0,0,.841,1.012,63.373,63.373,0,0,0,11.754-.13.861.861,0,0,0,.773-.7l.792-4.127a.967.967,0,0,0-.91-1.131l-12.132-.483a.862.862,0,0,0-.913.842" fill="#6d92f0"/>
        <path id="Path_3225" data-name="Path 3225" d="M227.63,76.46a191.363,191.363,0,0,0,.279,19.408c.328,8.429.907,16.723,2.124,30.54H272.46c-.852-11.952.54-25.572,8.159-52.464a9.9,9.9,0,0,0-8.463-12.861c-1.681-.17-3.464-.313-5.293-.4a134.963,134.963,0,0,0-19.266,0c-2.094.19-4.264.453-6.339.741A15.971,15.971,0,0,0,227.63,76.46" fill="#263238"/>
        <path id="Path_3226" data-name="Path 3226" d="M272.246,121.162c-8.487,2.167-21.409,2.789-42.621.521.509,11.255-4.432,86.9-4.432,86.9s42.992,9.454,67.3-3.376c1.576-57.173-20.249-84.048-20.249-84.048" fill="#6d92f0"/>
        <g id="Group_75565" data-name="Group 75565" opacity="0.2">
          <g id="Group_75564" data-name="Group 75564">
            <g id="Group_75563" data-name="Group 75563" clip-path="url(#clip-path-21)">
              <path id="Path_3227" data-name="Path 3227" d="M256.017,166.8s11.67-10.874,17.435-18.292c-.46,7.756-7.416,14.734-17.435,18.292"/>
            </g>
          </g>
        </g>
        <path id="Path_3228" data-name="Path 3228" d="M191.641,76.4l2.822,1.434a3.679,3.679,0,0,1,1.974,2.735l.829,5.5a6.867,6.867,0,0,1-2.025,5.967l-.991.955c-4.844-2.057-8.562-7.849-8.562-7.849l-1.243-1.534a3.063,3.063,0,0,1,.352-4.344l3.007-2.5a3.531,3.531,0,0,1,3.837-.362" fill="#ff8b7b"/>
        <path id="Path_3229" data-name="Path 3229" d="M242.285,77.4c-.307.856-.537,1.458-.811,2.147-.264.669-.551,1.315-.832,1.963-.561,1.3-1.187,2.55-1.811,3.8a79.794,79.794,0,0,1-4.22,7.276c-.758,1.184-1.575,2.34-2.392,3.494-.86,1.13-1.7,2.266-2.628,3.36a64.21,64.21,0,0,1-5.919,6.295l-.278.266a5.459,5.459,0,0,1-.831.646,11.514,11.514,0,0,1-3.964,1.536,12.306,12.306,0,0,1-3.579.139,17.8,17.8,0,0,1-5.262-1.454,33.1,33.1,0,0,1-7.232-4.557,57.764,57.764,0,0,1-5.66-5.293A59.642,59.642,0,0,1,192,91.153a3.763,3.763,0,0,1,5.094-5.359l.172.112c1.863,1.207,3.833,2.529,5.753,3.708,1.93,1.195,3.858,2.335,5.763,3.3a26.209,26.209,0,0,0,5.352,2.174,4.036,4.036,0,0,0,1.678.158c.123-.04.12-.1-.024-.1a1.535,1.535,0,0,0-.676.186l-1.108.912c1.46-1.76,2.882-3.552,4.2-5.485s2.574-3.908,3.75-5.964,2.311-4.146,3.355-6.285c.529-1.065,1.028-2.143,1.528-3.211l.718-1.6.636-1.457.165-.378a7.5,7.5,0,0,1,13.93,5.532" fill="#ff8b7b"/>
        <path id="Path_3230" data-name="Path 3230" d="M242.429,61.266c-6.93.906-13.674,5.2-19.638,18.944,2.441,5.235,14.315,10.465,14.315,10.465s13.705-16.863,5.323-29.409" fill="#263238"/>
      </g>
    </g>
  </g>
</svg>
