<svg id="streamliningSearchprocess" xmlns="http://www.w3.org/2000/svg" width="88.904" height="69.017" viewBox="0 0 88.904 69.017">
  <g id="Group_76023" data-name="Group 76023" transform="translate(-5.546 -15.49)">
    <path id="Path_4091" data-name="Path 4091" d="M45.42,47.72v-.04H41.2L36.12,44.1a11.025,11.025,0,0,1-4.61-7.79A12.646,12.646,0,0,0,18.93,25.07H10.25a2.14,2.14,0,1,0-.09,1.62h8.78a11.031,11.031,0,0,1,10.97,9.8,12.673,12.673,0,0,0,5.29,8.93l3.21,2.26H10.86a2.7,2.7,0,1,0,0,1.4H38.71L35.5,51.34a12.653,12.653,0,0,0-5.29,8.93,11.031,11.031,0,0,1-10.97,9.8H10.46a2.169,2.169,0,1,0,.09,1.62h8.68A12.653,12.653,0,0,0,31.81,60.45a11.079,11.079,0,0,1,4.61-7.79l5.08-3.58h3.9V47.72Z" fill="#00b250"/>
    <g id="Group_76022" data-name="Group 76022">
      <path id="Path_4092" data-name="Path 4092" d="M88.28,56.46a21.766,21.766,0,1,0-30.87,10.1,2.727,2.727,0,0,0-.61.87l-5.81,13.3a2.7,2.7,0,1,0,4.94,2.16l5.81-13.3a2.749,2.749,0,0,0,.23-1.04A21.758,21.758,0,0,0,88.29,56.47Z" fill="#039"/>
      <circle id="Ellipse_100" data-name="Ellipse 100" cx="18.79" cy="18.79" r="18.79" transform="translate(49.55 28.86)" fill="#6d92f0"/>
      <path id="Path_4093" data-name="Path 4093" d="M78.23,49.05a7.316,7.316,0,0,1-5.2,8.93,8.29,8.29,0,0,1-2.44.33,6.723,6.723,0,0,0,8.51-8.23,6.479,6.479,0,0,0-1.74-2.84,6.419,6.419,0,0,1,.86,1.81Z" fill="#fff" opacity="0.5"/>
      <g id="Group_76021" data-name="Group 76021">
        <path id="Path_4094" data-name="Path 4094" d="M68.42,60.46a4.517,4.517,0,0,0,4.51-4.51V47.9a4.51,4.51,0,0,0-9.02,0v8.05A4.517,4.517,0,0,0,68.42,60.46Z" fill="#039"/>
        <path id="Path_4095" data-name="Path 4095" d="M74.25,53.64a.738.738,0,0,0-.74.74v1.5a5.094,5.094,0,1,1-10.18,0v-1.5a.74.74,0,0,0-1.48,0v1.5a6.713,6.713,0,0,0,5.83,6.73v3.73a.74.74,0,0,0,1.48,0V62.61a6.714,6.714,0,0,0,5.83-6.73v-1.5a.738.738,0,0,0-.74-.74Z" fill="#039"/>
      </g>
      <path id="Path_4096" data-name="Path 4096" d="M77.05,27.8l-.09-.03L52.27,84.21s.07.04.11.06a2.7,2.7,0,0,0,3.55-1.39l5.81-13.3a2.749,2.749,0,0,0,.23-1.04A21.758,21.758,0,0,0,77.06,27.8Z" fill="#fff" opacity="0.1"/>
      <path id="Path_4097" data-name="Path 4097" d="M54.75,46.75c0-7.19,6.23-13.01,13.92-13.01a14.753,14.753,0,0,1,4.49.7,12.462,12.462,0,0,0-7.03-2.16A12.286,12.286,0,0,0,53.75,44.47a11.959,11.959,0,0,0,1.57,5.93,12.342,12.342,0,0,1-.57-3.66Z" fill="#fff" opacity="0.5"/>
      <path id="Path_4098" data-name="Path 4098" d="M58.41,47.41c0-5.34,4.62-9.66,10.32-9.66a11.051,11.051,0,0,1,3.33.52,9.2,9.2,0,0,0-14.39,7.46,8.926,8.926,0,0,0,1.16,4.41,9.05,9.05,0,0,1-.42-2.72Z" fill="#fff" opacity="0.5"/>
      <path id="Path_4099" data-name="Path 4099" d="M81.31,48.64c1.65,5.53-1.88,11.47-7.89,13.26a12.316,12.316,0,0,1-3.67.51,10.265,10.265,0,0,0,5.99.02,9.948,9.948,0,0,0,6.87-12.27,9.572,9.572,0,0,0-2.59-4.2,9.607,9.607,0,0,1,1.28,2.68Z" fill="#fff" opacity="0.5"/>
    </g>
    <path id="Path_4100" data-name="Path 4100" d="M58.59,27.21a.227.227,0,0,0-.15-.2l-2.51-.75a11.642,11.642,0,0,0-1.55-3.35l1.05-2.4a.2.2,0,0,0-.05-.24l-2.31-2.13a.229.229,0,0,0-.25-.03l-2.31,1.24a11.472,11.472,0,0,0-3.47-1.28l-.95-2.44a.217.217,0,0,0-.21-.14l-3.14.13a.227.227,0,0,0-.2.15l-.75,2.51a11.642,11.642,0,0,0-3.35,1.55l-2.4-1.05a.2.2,0,0,0-.24.05l-2.13,2.31a.229.229,0,0,0-.03.25l1.24,2.31a11.472,11.472,0,0,0-1.28,3.47l-2.44.95a.217.217,0,0,0-.14.21l.13,3.14a.227.227,0,0,0,.15.2l2.51.75a11.642,11.642,0,0,0,1.55,3.35l-1.05,2.4a.2.2,0,0,0,.05.24l2.31,2.13a.229.229,0,0,0,.25.03l2.31-1.24a11.472,11.472,0,0,0,3.47,1.28l.95,2.44a.217.217,0,0,0,.21.14L47,43.06a.227.227,0,0,0,.2-.15l.75-2.51a11.642,11.642,0,0,0,3.35-1.55l2.4,1.05a.2.2,0,0,0,.24-.05l2.13-2.31a.229.229,0,0,0,.03-.25l-1.24-2.31a11.472,11.472,0,0,0,1.28-3.47l2.44-.95a.217.217,0,0,0,.14-.21l-.13-3.14ZM44.88,35.24a5.91,5.91,0,1,1,5.91-5.91A5.909,5.909,0,0,1,44.88,35.24Z" fill="#ffa300"/>
    <path id="Path_4101" data-name="Path 4101" d="M56.67,58.06a.117.117,0,0,0-.09-.11l-1.44-.43a6.537,6.537,0,0,0-.89-1.93l.6-1.38a.312.312,0,0,0-.03-.14l-1.33-1.23s-.1-.04-.14-.02l-1.33.71a6.316,6.316,0,0,0-2-.73l-.55-1.4s-.07-.08-.12-.08l-1.81.07a.117.117,0,0,0-.11.09L47,52.92a6.537,6.537,0,0,0-1.93.89l-1.38-.6a.312.312,0,0,0-.14.03l-1.23,1.33s-.04.1-.02.14l.71,1.33a6.316,6.316,0,0,0-.73,2l-1.4.55s-.08.07-.08.12l.07,1.81a.117.117,0,0,0,.09.11l1.44.43a6.537,6.537,0,0,0,.89,1.93l-.6,1.38a.312.312,0,0,0,.03.14l1.33,1.23s.1.04.14.02l1.33-.71a6.316,6.316,0,0,0,2,.73l.55,1.4s.07.08.12.08L50,67.19a.117.117,0,0,0,.11-.09l.43-1.44a6.537,6.537,0,0,0,1.93-.89l1.38.6a.312.312,0,0,0,.14-.03l1.23-1.33s.04-.1.02-.14l-.71-1.33a6.316,6.316,0,0,0,.73-2l1.4-.55s.08-.07.08-.12Zm-7.9,4.63a3.4,3.4,0,1,1,3.4-3.4A3.4,3.4,0,0,1,48.77,62.69Z" fill="#ffa300"/>
  </g>
  <rect id="Rectangle_148217" data-name="Rectangle 148217" width="3.19" height="1.5" transform="translate(85.714 32.14)" fill="#00b250"/>
</svg>
