<svg id="userfriendlysearch" xmlns="http://www.w3.org/2000/svg" xmlns:xlink="http://www.w3.org/1999/xlink" width="79.14" height="78.29" viewBox="0 0 79.14 78.29">
  <defs>
    <clipPath id="clip-path">
      <rect id="Rectangle_148227" data-name="Rectangle 148227" width="25.7" height="76.66" transform="translate(36.94 11.67)" fill="none"/>
    </clipPath>
  </defs>
  <g id="Group_76045" data-name="Group 76045" transform="translate(-10.43 -10.85)">
    <g id="Group_76039" data-name="Group 76039">
      <g id="Group_75594" data-name="Group 75594">
        <g id="Group_75591" data-name="Group 75591">
          <g id="Group_75595" data-name="Group 75595">
            <path id="Path_3232-2" data-name="Path 3232-2" d="M54.78,88.33H19.11a7.861,7.861,0,0,1-7.86-7.86h0V19.53a7.861,7.861,0,0,1,7.86-7.86H54.79a7.861,7.861,0,0,1,7.86,7.86h0V80.47a7.861,7.861,0,0,1-7.86,7.86h0" fill="#6d92f0"/>
            <path id="Path_3233" data-name="Path 3233" d="M54.78,89.14H19.11a8.691,8.691,0,0,1-8.68-8.68V19.53a8.691,8.691,0,0,1,8.68-8.68H54.79a8.691,8.691,0,0,1,8.68,8.68V80.46a8.691,8.691,0,0,1-8.68,8.68M19.11,12.48a7.055,7.055,0,0,0-7.05,7.05V80.46a7.055,7.055,0,0,0,7.05,7.05H54.79a7.055,7.055,0,0,0,7.05-7.05V19.53a7.055,7.055,0,0,0-7.05-7.05H19.11Z" fill="#f2f5fc"/>
            <path id="Path_3243" data-name="Path 3243" d="M45.85,17.79H28.03a1.016,1.016,0,0,1,0-2.03H45.85a1.016,1.016,0,0,1,.07,2.03h-.06" fill="#fff"/>
            <path id="Path_3244" data-name="Path 3244" d="M40.89,84.77H33a1.016,1.016,0,0,1-.07-2.03h7.95a1.016,1.016,0,0,1,.07,2.03h-.06" fill="#fff"/>
            <g id="Group_75589" data-name="Group 75589" opacity="0.1">
              <g id="Group_75588" data-name="Group 75588">
                <g id="Group_76038" data-name="Group 76038" clip-path="url(#clip-path)">
                  <g id="Group_75587" data-name="Group 75587">
                    <path id="Path_3245" data-name="Path 3245" d="M54.78,11.67H36.94V88.33H54.78a7.861,7.861,0,0,0,7.86-7.86h0V19.53a7.861,7.861,0,0,0-7.86-7.86h0" fill="#fff"/>
                  </g>
                </g>
              </g>
            </g>
          </g>
        </g>
      </g>
      <path id="Path_4119" data-name="Path 4119" d="M36.94,34.29a15.172,15.172,0,0,0-8.81,27.53,1.118,1.118,0,0,0-.38.37l-3.2,4.98a1.259,1.259,0,0,0,.38,1.73,1.275,1.275,0,0,0,.67.2,1.234,1.234,0,0,0,1.05-.58l3.2-4.98a1.316,1.316,0,0,0,.18-.56,15.176,15.176,0,1,0,6.9-28.69Z" fill="#fff"/>
      <circle id="Ellipse_101" data-name="Ellipse 101" cx="13.68" cy="13.68" r="13.68" transform="translate(23.26 35.79)" fill="#d6bc00"/>
      <path id="Path_4120" data-name="Path 4120" d="M36.94,35.79a13.68,13.68,0,1,1,0,27.36" fill="#fff" opacity="0.1"/>
    </g>
    <g id="Group_76041" data-name="Group 76041">
      <g id="Group_76040" data-name="Group 76040">
        <path id="Path_4121" data-name="Path 4121" d="M76.66,65.47H73.22a11.14,11.14,0,1,0-11.78,0H58a8.211,8.211,0,0,0-8.2,8.2v7.67a.84.84,0,0,0,1.68,0h4.71V78.27a.84.84,0,0,1,1.68,0v3.07H76.76V78.27a.84.84,0,0,1,1.68,0v3.07h4.71a.84.84,0,0,0,1.68,0V73.67a8.211,8.211,0,0,0-8.2-8.2Z" fill="#3f5a9f"/>
        <path id="Path_4122" data-name="Path 4122" d="M57.03,82.19a.839.839,0,0,0,.84-.84H56.18a.839.839,0,0,0,.84.84Z" fill="#3f5a9f"/>
        <path id="Path_4123" data-name="Path 4123" d="M77.62,82.19a.839.839,0,0,0,.84-.84H76.77a.839.839,0,0,0,.84.84Z" fill="#3f5a9f"/>
      </g>
      <path id="Path_4124" data-name="Path 4124" d="M76.66,65.47H73.22a11.136,11.136,0,0,0-5.89-20.59c-.18,0-.37,0-.55.01V81.34h10V78.27a.84.84,0,0,1,1.68,0v3.07h4.71a.84.84,0,1,0,1.68,0V73.67a8.211,8.211,0,0,0-8.2-8.2Z" fill="#fff" opacity="0.1"/>
    </g>
    <g id="Group_76043" data-name="Group 76043">
      <rect id="Rectangle_148228" data-name="Rectangle 148228" width="36.36" height="10.72" rx="2.3" transform="translate(45.27 21.68)" fill="#039"/>
      <rect id="Rectangle_148229" data-name="Rectangle 148229" width="8" height="8" rx="1.76" transform="translate(47.3 23.04)" fill="#e6eeff"/>
      <g id="Group_76042" data-name="Group 76042">
        <path id="Path_4125" data-name="Path 4125" d="M77.06,24.29h-19a.75.75,0,0,0,0,1.5h19a.75.75,0,0,0,0-1.5Z" fill="#fff"/>
        <path id="Path_4126" data-name="Path 4126" d="M72.06,28.29h-14a.75.75,0,0,0,0,1.5h14a.75.75,0,0,0,0-1.5Z" fill="#fff"/>
      </g>
    </g>
    <g id="Group_76044" data-name="Group 76044">
      <path id="Path_4127" data-name="Path 4127" d="M89.15,24.29H84.06c-.23,0-.42.34-.42.75s.19.75.42.75h5.09c.23,0,.42-.34.42-.75s-.19-.75-.42-.75Z" fill="#00b250"/>
      <path id="Path_4128" data-name="Path 4128" d="M86.32,28.29H84.06c-.23,0-.42.34-.42.75s.19.75.42.75h2.26c.23,0,.42-.34.42-.75S86.55,28.29,86.32,28.29Z" fill="#00b250"/>
    </g>
  </g>
  <g id="Group_76046" data-name="Group 76046" transform="translate(-10.43 -10.85)">
    <rect id="Rectangle_148230" data-name="Rectangle 148230" width="3" height="5" rx="1.5" transform="translate(31.75 44.47)" fill="#3a3200"/>
    <rect id="Rectangle_148231" data-name="Rectangle 148231" width="3" height="5" rx="1.5" transform="translate(38.75 44.47)" fill="#3a3200"/>
    <path id="Path_4129" data-name="Path 4129" d="M36.94,58.54c-4.19,0-7.79-2.41-8.76-5.86a.684.684,0,0,1,1.32-.36c.78,2.82,3.91,4.86,7.44,4.86s6.65-2.04,7.44-4.86a.684.684,0,0,1,1.32.36c-.96,3.45-4.56,5.86-8.76,5.86Z" fill="#3a3200"/>
  </g>
</svg>
