<svg id="voicetotext" xmlns="http://www.w3.org/2000/svg" xmlns:xlink="http://www.w3.org/1999/xlink" width="92.75" height="78.29" viewBox="0 0 92.75 78.29">
  <defs>
    <clipPath id="clip-path">
      <rect id="Rectangle_148216" data-name="Rectangle 148216" width="25.7" height="76.66" transform="translate(51.62 11.67)" fill="none"/>
    </clipPath>
  </defs>
  <g id="Group_75594" data-name="Group 75594" transform="translate(-3.62 -10.85)">
    <g id="Group_75591" data-name="Group 75591">
      <g id="Group_75595" data-name="Group 75595">
        <path id="Path_3232-2" data-name="Path 3232-2" d="M69.45,88.33H33.77a7.861,7.861,0,0,1-7.86-7.86h0V19.53a7.861,7.861,0,0,1,7.86-7.86H69.45a7.861,7.861,0,0,1,7.86,7.86h0V80.47a7.861,7.861,0,0,1-7.86,7.86h0" fill="#6d92f0"/>
        <path id="Path_3233" data-name="Path 3233" d="M69.45,89.14H33.78a8.691,8.691,0,0,1-8.68-8.68V19.53a8.691,8.691,0,0,1,8.68-8.68H69.46a8.691,8.691,0,0,1,8.68,8.68V80.46a8.691,8.691,0,0,1-8.68,8.68M33.78,12.48a7.055,7.055,0,0,0-7.05,7.05V80.46a7.055,7.055,0,0,0,7.05,7.05H69.46a7.055,7.055,0,0,0,7.05-7.05V19.53a7.055,7.055,0,0,0-7.05-7.05H33.78Z" fill="#f2f5fc"/>
        <path id="Path_3239" data-name="Path 3239" d="M42.86,56.03h0a.791.791,0,0,0,1.12.03l.08-.08a8.343,8.343,0,0,0,0-10.16.793.793,0,0,0-1.11-.13c-.02.02-.04.03-.06.05h0a.784.784,0,0,0-.07,1.05,6.752,6.752,0,0,1,0,8.22.776.776,0,0,0,.05,1.02" fill="#fff"/>
        <path id="Path_3240" data-name="Path 3240" d="M45.18,58.46h0a.794.794,0,0,0,1.13.02l.05-.05a11.684,11.684,0,0,0,.1-14.94.807.807,0,0,0-1.13-.11.138.138,0,0,1-.04.03h0a.776.776,0,0,0-.07,1.06,10.1,10.1,0,0,1-.09,12.94.769.769,0,0,0,.04,1.04" fill="#fff"/>
        <path id="Path_3241" data-name="Path 3241" d="M47.9,61.32h0a.782.782,0,0,0,1.12.02.1.1,0,0,0,.04-.05,15.618,15.618,0,0,0,.23-20.53.792.792,0,0,0-1.12-.09c-.01,0-.02.02-.03.03h0a.788.788,0,0,0-.07,1.07,14.021,14.021,0,0,1-.21,18.49.785.785,0,0,0,.03,1.06" fill="#fff"/>
        <path id="Path_3242" data-name="Path 3242" d="M50.89,64.45h0a.791.791,0,0,0,1.12.02l.04-.04a19.946,19.946,0,0,0,.35-26.69.789.789,0,0,0-1.11-.06l-.02.02h0a.8.8,0,0,0-.04,1.1,18.363,18.363,0,0,1-.34,24.55.792.792,0,0,0,0,1.09" fill="#fff"/>
        <path id="Path_3243" data-name="Path 3243" d="M60.52,17.79H42.7a1.016,1.016,0,0,1,0-2.03H60.52a1.016,1.016,0,1,1,.07,2.03h-.06" fill="#fff"/>
        <path id="Path_3244" data-name="Path 3244" d="M55.56,84.77H47.67a1.016,1.016,0,0,1-.07-2.03h7.95a1.016,1.016,0,0,1,.07,2.03h-.06" fill="#fff"/>
        <g id="Group_75589" data-name="Group 75589" opacity="0.1">
          <g id="Group_75588" data-name="Group 75588">
            <g id="Group_76017" data-name="Group 76017" clip-path="url(#clip-path)">
              <g id="Group_75587" data-name="Group 75587">
                <path id="Path_3245" data-name="Path 3245" d="M69.45,11.67H51.61V88.33H69.45a7.861,7.861,0,0,0,7.86-7.86h0V19.53a7.861,7.861,0,0,0-7.86-7.86h0" fill="#fff"/>
              </g>
            </g>
          </g>
        </g>
      </g>
    </g>
  </g>
  <path id="Path_4076" data-name="Path 4076" d="M95.62,31.58V41.83H94.61a16.378,16.378,0,0,0-1.98-5.1,7.558,7.558,0,0,0-2.99-2.47,9.522,9.522,0,0,0-3.72-.5H83.1V62.99a12.049,12.049,0,0,0,.32,3.63,2.839,2.839,0,0,0,1.26,1.27,5.155,5.155,0,0,0,2.56.54H88.5v1.03H68.66V68.43h1.26a5.228,5.228,0,0,0,2.65-.59,2.71,2.71,0,0,0,1.15-1.34,11.655,11.655,0,0,0,.31-3.52V33.75H71.29c-2.55,0-4.41.54-5.56,1.62a10.674,10.674,0,0,0-3.07,6.45H61.6V31.57H95.63Z" transform="translate(-3.62 -10.85)" fill="#e6eeff"/>
  <path id="Path_4077" data-name="Path 4077" d="M76.62,31.58V69.47H88.49V68.44H87.23a5.155,5.155,0,0,1-2.56-.54,2.946,2.946,0,0,1-1.26-1.27A12.1,12.1,0,0,1,83.09,63V33.77h2.82a9.718,9.718,0,0,1,3.72.5,7.628,7.628,0,0,1,2.99,2.47,15.894,15.894,0,0,1,1.98,5.1h1.01V31.59h-19Z" transform="translate(-3.62 -10.85)" fill="#039"/>
  <g id="Group_76018" data-name="Group 76018" transform="translate(-3.62 -10.85)">
    <path id="Path_4078" data-name="Path 4078" d="M86.62,47.75h9a.75.75,0,0,0,0-1.5h-9a.75.75,0,0,0,0,1.5Z" fill="#039"/>
    <path id="Path_4079" data-name="Path 4079" d="M95.62,51.25h-9a.75.75,0,0,0,0,1.5h9a.75.75,0,0,0,0-1.5Z" fill="#039"/>
    <path id="Path_4080" data-name="Path 4080" d="M95.62,56.25h-9a.75.75,0,0,0,0,1.5h9a.75.75,0,0,0,0-1.5Z" fill="#039"/>
    <path id="Path_4081" data-name="Path 4081" d="M90.62,61.25h-4a.75.75,0,0,0,0,1.5h4a.75.75,0,0,0,0-1.5Z" fill="#039"/>
  </g>
  <path id="Path_4082" data-name="Path 4082" d="M40.13,48.39a2.493,2.493,0,0,0-2.39,1.81h-4.3a2.057,2.057,0,0,1-2.06-2.06V30.02a3.568,3.568,0,0,0-3.56-3.56H25.2a3.568,3.568,0,0,0-3.56,3.56V71.19a2.057,2.057,0,0,1-2.06,2.06h-.51a2.057,2.057,0,0,1-2.06-2.06V41.92a3.56,3.56,0,1,0-7.12,0V53.47a2.052,2.052,0,0,1-1.51,1.98,2.5,2.5,0,1,0,.2,1.5,3.56,3.56,0,0,0,2.82-3.48V41.92a2.06,2.06,0,1,1,4.12,0V71.19a3.568,3.568,0,0,0,3.56,3.56h.51a3.568,3.568,0,0,0,3.56-3.56V30.02a2.057,2.057,0,0,1,2.06-2.06h2.62a2.057,2.057,0,0,1,2.06,2.06V48.14a3.568,3.568,0,0,0,3.56,3.56h4.34a2.494,2.494,0,1,0,2.35-3.31Z" transform="translate(-3.62 -10.85)" fill="#00b250"/>
  <path id="Path_4083" data-name="Path 4083" d="M40.13,48.39a2.493,2.493,0,0,0-2.39,1.81h-4.3a2.057,2.057,0,0,1-2.06-2.06V30.02a3.568,3.568,0,0,0-3.56-3.56h-1.1v1.5h1.1a2.057,2.057,0,0,1,2.06,2.06V48.14a3.568,3.568,0,0,0,3.56,3.56h4.34a2.494,2.494,0,1,0,2.35-3.31Z" transform="translate(-3.62 -10.85)" fill="#fff"/>
</svg>
