<svg viewBox="0 0 20 20" fill="none" xmlns="http://www.w3.org/2000/svg">
<g clip-path="url(#clip0_704_104)">
<path style="fill: black;" d="M2.93008 17.07C1.97498 16.1475 1.21316 15.0441 0.689065 13.824C0.164975 12.604 -0.110887 11.2918 -0.122425 9.96402C-0.133963 8.63622 0.119054 7.31943 0.621863 6.09046C1.12467 4.8615 1.8672 3.74498 2.80613 2.80605C3.74506 1.86713 4.86158 1.1246 6.09054 0.621786C7.3195 0.118977 8.6363 -0.13404 9.96409 -0.122501C11.2919 -0.110963 12.6041 0.164899 13.8241 0.688989C15.0442 1.21308 16.1476 1.9749 17.0701 2.93C18.8917 4.81602 19.8996 7.34205 19.8768 9.96402C19.854 12.586 18.8023 15.0941 16.9483 16.9482C15.0942 18.8023 12.5861 19.854 9.96409 19.8767C7.34212 19.8995 4.8161 18.8916 2.93008 17.07ZM4.34008 15.66C5.8412 17.1611 7.87717 18.0045 10.0001 18.0045C12.123 18.0045 14.159 17.1611 15.6601 15.66C17.1612 14.1589 18.0045 12.1229 18.0045 10C18.0045 7.87709 17.1612 5.84113 15.6601 4.34C14.159 2.83888 12.123 1.99555 10.0001 1.99555C7.87717 1.99555 5.8412 2.83888 4.34008 4.34C2.83895 5.84113 1.99563 7.87709 1.99563 10C1.99563 12.1229 2.83895 14.1589 4.34008 15.66ZM14.2401 7.17L11.4101 10L14.2401 12.83L12.8301 14.24L10.0001 11.41L7.17008 14.24L5.76008 12.83L8.59008 10L5.76008 7.17L7.17008 5.76L10.0001 8.59L12.8301 5.76L14.2401 7.17Z" fill="#DA4040"/>
</g>
<defs>
<clipPath id="clip0_704_104">
<rect width="20" height="20" fill="white"/>
</clipPath>
</defs>
</svg>
