<svg width="100" height="100" viewBox="0 0 100 100" fill="none" xmlns="http://www.w3.org/2000/svg">
<path d="M61.6666 19.2202L89.5874 65.7244C93.5999 72.4036 91.6291 81.1911 85.1833 85.3494C83.0198 86.7502 80.4981 87.4968 77.9208 87.4994H22.0749C14.4874 87.4994 8.33325 81.1244 8.33325 73.2536C8.33325 70.5911 9.05409 67.9869 10.4083 65.7244L38.3333 19.2202C42.3416 12.5411 50.8166 10.4952 57.2624 14.6536C59.0457 15.8036 60.5541 17.3661 61.6666 19.2202ZM52.4166 22.7161C51.9065 22.388 51.3352 22.1667 50.7372 22.0656C50.1392 21.9644 49.5269 21.9856 48.9373 22.1277C48.3476 22.2699 47.793 22.5301 47.3067 22.8926C46.8205 23.2551 46.4128 23.7124 46.1082 24.2369L18.1874 70.7494C17.7339 71.5074 17.4948 72.3744 17.4958 73.2577C17.4958 75.8827 19.5458 78.0077 22.0791 78.0077H77.9166C78.7749 78.0077 79.6124 77.7577 80.3374 77.2911C81.3778 76.5999 82.1113 75.5339 82.3853 74.3153C82.6593 73.0967 82.4526 71.8194 81.8083 70.7494L53.8874 24.2369C53.5212 23.6245 53.0195 23.1042 52.4208 22.7161H52.4166ZM49.9999 70.8327C48.8948 70.8327 47.835 70.3938 47.0536 69.6124C46.2722 68.8309 45.8333 67.7711 45.8333 66.6661C45.8333 65.561 46.2722 64.5012 47.0536 63.7198C47.835 62.9384 48.8948 62.4994 49.9999 62.4994C51.105 62.4994 52.1648 62.9384 52.9462 63.7198C53.7276 64.5012 54.1666 65.561 54.1666 66.6661C54.1666 67.7711 53.7276 68.8309 52.9462 69.6124C52.1648 70.3938 51.105 70.8327 49.9999 70.8327ZM49.9999 33.3327C51.105 33.3327 52.1648 33.7717 52.9462 34.5531C53.7276 35.3345 54.1666 36.3943 54.1666 37.4994V54.1661C54.1666 55.2711 53.7276 56.3309 52.9462 57.1124C52.1648 57.8938 51.105 58.3327 49.9999 58.3327C48.8948 58.3327 47.835 57.8938 47.0536 57.1124C46.2722 56.3309 45.8333 55.2711 45.8333 54.1661V37.4994C45.8333 36.3943 46.2722 35.3345 47.0536 34.5531C47.835 33.7717 48.8948 33.3327 49.9999 33.3327Z" fill="#F24E1E"/>
</svg>
