<svg width="40" height="40" viewBox="0 0 40 40" fill="none" xmlns="http://www.w3.org/2000/svg">
<path fill-rule="evenodd" clip-rule="evenodd" d="M30 3.33333C31.3261 3.33333 32.5979 3.86012 33.5355 4.7978C34.4732 5.73548 35 7.00725 35 8.33333V31.6667C35 32.9927 34.4732 34.2645 33.5355 35.2022C32.5979 36.1399 31.3261 36.6667 30 36.6667H20C18.6739 36.6667 17.4021 36.1399 16.4645 35.2022C15.5268 34.2645 15 32.9927 15 31.6667V8.33333C15 7.00725 15.5268 5.73548 16.4645 4.7978C17.4021 3.86012 18.6739 3.33333 20 3.33333H30ZM12.845 12.155C12.5325 11.8425 12.1086 11.667 11.6667 11.667C11.2247 11.667 10.8009 11.8425 10.4883 12.155L3.82166 18.8217C3.50921 19.1342 3.33369 19.5581 3.33369 20C3.33369 20.4419 3.50921 20.8658 3.82166 21.1783L10.4883 27.845C10.8027 28.1486 11.2237 28.3166 11.6607 28.3128C12.0977 28.309 12.5157 28.1337 12.8247 27.8247C13.1337 27.5157 13.309 27.0977 13.3128 26.6607C13.3166 26.2237 13.1486 25.8027 12.845 25.4883L9.02333 21.6667H23.3333C23.7754 21.6667 24.1993 21.4911 24.5118 21.1785C24.8244 20.8659 25 20.442 25 20C25 19.558 24.8244 19.1341 24.5118 18.8215C24.1993 18.5089 23.7754 18.3333 23.3333 18.3333H9.02333L12.845 14.5117C13.1575 14.1991 13.333 13.7753 13.333 13.3333C13.333 12.8914 13.1575 12.4675 12.845 12.155Z" fill="black"/>
</svg>
