<svg width="30" height="30" viewBox="0 0 30 30" fill="none" xmlns="http://www.w3.org/2000/svg">
<path d="M23.75 10C25.825 10 27.5 11.675 27.5 13.75V21.25H22.5V26.25H7.5V21.25H2.5V13.75C2.5 11.675 4.175 10 6.25 10H7.5V3.75H22.5V10H23.75ZM10 6.25V10H20V6.25H10ZM20 23.75V18.75H10V23.75H20ZM22.5 18.75H25V13.75C25 13.0625 24.4375 12.5 23.75 12.5H6.25C5.5625 12.5 5 13.0625 5 13.75V18.75H7.5V16.25H22.5V18.75ZM23.75 14.375C23.75 15.0625 23.1875 15.625 22.5 15.625C21.8125 15.625 21.25 15.0625 21.25 14.375C21.25 13.6875 21.8125 13.125 22.5 13.125C23.1875 13.125 23.75 13.6875 23.75 14.375Z" fill="#9DB2CE"/>
</svg>
